<?xml version="1.0" encoding="UTF-8"?>
<svg xmlns="http://www.w3.org/2000/svg" version="1.1" viewBox="0 0 992.1 566.9">
  <defs>
    <style>
      .cls-1 {
        fill: #003f2d;
      }

      .cls-2 {
        fill: none;
        stroke: #092119;
        stroke-width: 2px;
      }
    </style>
  </defs>
  <!-- Generator: Adobe Illustrator 28.7.6, SVG Export Plug-In . SVG Version: 1.2.0 Build 188)  -->
  <g>
    <g id="Layer_1">
      <g>
        <path class="cls-2" d="M375.3,445.1v1.1" vector-effect="non-scaling-stroke"/>
        <g>
          <path d="M476.3,132.9c9.6,0,16.1,0,19.3,0,.3,0,.7-.1,1-.3l83.8-57.7c.2-.1.5,0,.7.1,0,0,0,.1,0,.2,7.2,68.1,10.9,103.9,11.3,107.3,1.2,12.3,2.8,24.9,4.9,37.8,3.2,19.3,8.5,54.1,16.1,104.4,0,.5-.2,1.1-.7,1.3-46.5,25.6-91.4,50.6-134.8,75.1-.8.5-1.4.7-1.8.7s-.9-.2-1.8-.7c-43.4-24.5-88.3-49.5-134.8-75.1-.5-.3-.7-.8-.7-1.3,7.6-50.3,12.9-85.1,16.1-104.4,2.1-12.9,3.8-25.5,4.9-37.8.3-3.4,4.1-39.2,11.3-107.3,0-.3.3-.4.5-.4,0,0,.2,0,.2,0l83.8,57.7c.3.2.6.3,1,.3,3.2,0,9.7,0,19.3,0ZM585.2,200c.1.1.3,0,.4,0,0,0,0-.1,0-.2l-11.5-109.6c0-.2-.2-.3-.3-.3,0,0,0,0-.1,0l-72.4,49.8c-.1,0-.2.3,0,.4,0,0,0,0,0,0l83.9,59.8ZM367,199.7c0,.2.1.4.3.4,0,0,.2,0,.2,0l83.8-59.8c.2-.1.2-.3,0-.5,0,0,0,0,0,0l-72.3-49.8c-.2-.1-.4,0-.5,0,0,0,0,.1,0,.2l-11.5,109.6ZM476.3,277.6h0c0,0,.1,0,.1,0l77.7-95.6c.2-.2.1-.5,0-.7,0,0,0,0,0,0l-55.6-39.6c-.4-.3-.9-.4-1.4-.4-3.1,0-10.1,0-20.8,0-10.7,0-17.7,0-20.8,0-.5,0-1,.1-1.4.4l-55.6,39.6c-.2.2-.3.5-.1.7,0,0,0,0,0,0l77.7,95.6s0,0,.1,0h0ZM472.8,389.8l-28.9-60.8c-.2-.3-.1-.7,0-1l30.3-47.4c.2-.3.2-.6,0-.8l-78.1-96.1c-.2-.3-.6-.3-.9-.1l-28.2,20.1c-.4.3-.6.7-.7,1.1l-6.5,41c0,.6,0,1.2.3,1.7l69.2,118.2c.2.4.5.7.9.9l42,23.7c.1,0,.3,0,.4-.1,0,0,0-.2,0-.3ZM478.2,279.9c0,.1,0,.3,0,.4l30.7,48c0,0,0,.2,0,.3l-28.9,60.8c0,.2,0,.4.2.4,0,0,.2,0,.3,0l42.2-23.4c0,0,0,0,.1-.1l70-119.5c0,0,0-.1,0-.2l-6.5-42.4c0,0,0-.2-.1-.2l-29.1-20.7c-.1-.1-.3,0-.4,0l-78.5,96.5ZM348.5,320.8c0,.1,0,.2.2.3l75.4,41.8c.1,0,.3,0,.4-.1,0,0,0-.2,0-.3l-64.9-110.8c0-.1-.3-.2-.4-.1,0,0-.1.1-.1.2l-10.5,69ZM604,321.1c.1,0,.2-.2.2-.3l-10.5-69c0-.2-.2-.3-.4-.3,0,0-.2,0-.2.1l-64.9,110.9c0,.1,0,.3.1.4,0,0,.2,0,.3,0l75.4-41.9ZM447,328.4c0,.1-.1.3,0,.5l28.9,60.9c.1.2.4.3.6.2,0,0,.2-.1.2-.2l28.9-60.9c0-.1,0-.3,0-.5l-28.9-45.2c-.1-.2-.4-.3-.6-.2,0,0-.1,0-.2.2l-28.9,45.2Z"/>
          <path d="M175.8,283.8c2.3-14.8,5-29.5,8.1-44,5.3-25.6,11.7-55.9,19.2-90.9,0-.1.2-.2.3-.2h43.3c.3,0,.6.2.7.6,9.2,46.9,14.7,75.5,16.6,85.6,2.8,15,5.3,31.1,7.6,48.3,0,.1,0,.2.2.2.1,0,.2,0,.2-.2,2.8-18.4,6.3-38.7,10.6-60.9,4.3-22.1,9.3-46.5,14.9-73.1,0-.3.3-.5.6-.5h40.9c.4,0,.7.3.7.7,0,0,0,.1,0,.2l-46.8,177c-.2.6-.7,1-1.3,1h-43.3c-.4,0-.7-.3-.8-.6-6.5-32-11.9-58.7-16.1-80-3.4-17.1-6-34-7.9-50.6,0-.1,0-.2-.2-.2-.1,0-.2,0-.2.2-2.9,17.7-5.9,34.7-9.7,51.1-3.3,14.5-9.3,40.9-18,79.2-.1.5-.6.9-1.1.9h-44.1c-.3,0-.6-.2-.6-.5l-43.2-177.7c0-.2,0-.5.3-.5,0,0,0,0,.1,0h43.6c.2,0,.4.2.5.4,2,10.4,7,37.2,15.2,80.6,3.1,16.3,6.2,34.3,9.4,54.1,0,.1.1.3.3.3.1,0,.3-.1.3-.3Z"/>
          <path d="M677.5,293.1h71.6c.3,0,.6.3.6.6h0v33.1c0,.3-.3.6-.6.6h-113.3c-.3,0-.6-.3-.6-.6v-177.5c0-.3.3-.6.6-.6h40.6c.3,0,.6.3.6.6h0v143.3c0,.3.3.6.6.6Z"/>
          <path d="M885.9,149.2v32.1c0,.3-.3.6-.6.6h-69.4c-.3,0-.6.3-.6.6v39.4c0,.3.3.6.6.6h64.6c.3,0,.6.3.6.6v32.1c0,.3-.3.6-.6.6h-64.7c-.3,0-.6.3-.6.6h0v70.6c0,.3-.3.6-.6.6h-40.6c-.3,0-.6-.3-.6-.6h0v-177.6c0-.3.3-.6.6-.6h111.2c.3,0,.6.3.6.6h0Z"/>
          <path d="M375.3,445.1v1.1s0-1.1,0-1.1Z"/>
        </g>
        <g>
          <path class="cls-1" d="M118.4,457.5c0,.2-.2.4-.4.4h-5.9c-.3,0-.6-.3-.6-.6v-23.6c0-.3-.2-.5-.5-.5h-3.9c-.4,0-.8-.4-.8-.8v-4.4c0-.4.4-.8.8-.8h3.8c.3,0,.6-.3.6-.6.1-5.5-.3-10.7,5.5-13.2,2.6-1.2,5.5-.9,8.3-.6.5,0,.9.5.9,1v5c0,.3-.3.6-.6.6-.1,0-.2,0-.4-.1-.4-.3-.9-.5-1.5-.6-5.9-.6-5.1,3.8-5.3,7.8,0,.4.3.7.6.7,0,0,0,0,0,0h5.4c.3,0,.5.2.5.5v5.1c0,.2-.2.4-.4.4h-5.5c-.4,0-.7.3-.7.7v23.6Z"/>
          <rect class="cls-1" x="710.4" y="413.2" width="7" height="44.8" rx=".3" ry=".3"/>
          <rect class="cls-1" x="694.9" y="413.1" width="7.3" height="44.8" rx=".7" ry=".7"/>
          <circle class="cls-1" cx="524.7" cy="418.2" r="4.3"/>
          <circle class="cls-1" cx="815.3" cy="418.2" r="4.3"/>
          <path class="cls-1" d="M249.1,436.7c0-9.1,4.2-17.7,13-20.7,10.3-3.5,20.7,1.1,23.4,12.3.1.4-.2.9-.6,1,0,0-.1,0-.2,0h-5.3c-.6,0-1.2-.4-1.4-1-1.7-4.1-4.5-6.3-8.5-6.6-9-.7-12.9,7.3-13,15,0,7.7,3.8,15.8,12.8,15.1,4-.3,6.9-2.5,8.6-6.5.2-.6.8-.9,1.4-.9h5.3c.5,0,.8.4.8.8,0,0,0,.1,0,.2-2.8,11.2-13.3,15.6-23.5,12-8.7-3.1-12.8-11.8-12.8-20.8Z"/>
          <path class="cls-1" d="M626.2,436.7c0,7.7,3.9,15.8,12.8,15.1,4-.3,6.9-2.5,8.6-6.5.2-.6.8-.9,1.4-.9h5.3c.5,0,.8.4.8.8,0,0,0,.1,0,.2-2.8,11.2-13.3,15.7-23.5,12-8.7-3.1-12.8-11.7-12.8-20.8,0-9.1,4.2-17.7,13-20.7,10.2-3.5,20.7,1,23.4,12.2.1.4-.2.9-.6,1,0,0-.1,0-.2,0h-5.3c-.6,0-1.1-.4-1.4-1-1.7-4.1-4.5-6.2-8.5-6.6-8.9-.7-12.9,7.3-12.9,15Z"/>
          <path class="cls-1" d="M317.4,436.5c4.3,2.1,6,6.6,5.4,11.4-1.2,8.9-9.1,10.2-17.6,10.1-7.9,0-12,0-12.3,0-.3,0-.6-.3-.6-.6v-41.4c0-.2.1-.3.3-.3,0,0,0,0,0,0,2.1,0,7.6,0,16.4,0,3.9,0,9.1,1.8,11.1,5.4,2.5,4.4,2,11.3-2.7,14.5-.2.2-.3.5-.1.7,0,0,.1.1.2.2ZM299.4,422.5v10.1c0,.3.2.5.5.5h8.4c3.4,0,6.1-2.3,6.2-5.3h0v-.5c0-2.9-2.7-5.4-6.1-5.4h-8.4c-.3,0-.5.2-.5.5ZM299.4,440v11c0,.3.2.5.5.5h9c3.7,0,6.7-2.5,6.7-5.6h0v-.9c0-3.1-3-5.6-6.7-5.6h-9c-.3,0-.5.2-.5.5Z"/>
          <path class="cls-1" d="M330.6,415.7c10.3,0,16.6,0,19,.1,14.2,1,15.5,22.4,1.5,24.5-.3,0-.6.4-.5.7,0,0,0,.2.1.2l11.4,16c.1.2,0,.5-.1.6,0,0-.2,0-.2,0h-6.9c-.5,0-.9-.2-1.2-.6l-10.8-15.6c-.2-.3-.5-.5-.8-.6-1-.2-2.3-.3-3.9-.2-.4,0-.6.3-.6.7v15.7c0,.3-.3.6-.6.6h-6.3c-.3,0-.6-.3-.6-.6h0v-40.9c0-.4.3-.7.7-.7ZM337.4,422.5v11.6c0,.3.3.6.6.6h8.5c3.8,0,7-2.6,7-5.8h0v-1.3c0-3.2-3.1-5.8-7-5.8h-8.5c-.3,0-.6.3-.6.6h0Z"/>
          <path class="cls-1" d="M375.3,445.1v1.1s0,4.3,0,4.3c0,.4.3.6.6.6h19.5c.3,0,.5.2.5.5v5.8c0,.2-.2.4-.4.4h-26.9c-.3,0-.5-.2-.5-.5v-41.4c0-.2.1-.3.3-.3h27.1c.2,0,.4.2.4.4v5.9c0,.1-.1.3-.3.3h-19.6c-.4,0-.8.3-.8.8v9.4c0,.3.2.5.5.5h17.6c.3,0,.5.2.5.5v5.5c0,.3-.2.5-.5.5h-17.3c-.3,0-.5.2-.5.5l-.2,5.1Z"/>
          <path class="cls-1" d="M418.4,416.4c0-.4.3-.8.8-.8h14.6c10.7,0,19.4,8.7,19.4,19.4h0v3.6c0,10.7-8.7,19.4-19.4,19.4h-14.6c-.4,0-.8-.3-.8-.8h0v-40.8ZM425.9,422.7v28.1c.1.3.4.6.7.6h6.4c7.2,0,13-6,12.9-13.2v-2.9c0-7.3-5.9-13.1-13-13.1h-6.4c-.3,0-.6.3-.6.6h0Z"/>
          <path class="cls-1" d="M803.8,451.5c.4-.2.8-.1,1.1.2,0,.1.1.3.1.4v4.3c0,.8-.5,1.4-1.2,1.6-5.5,1.6-11.5.2-13.2-6.1,0-.1,0-.2,0-.3v-17.9c0-.3-.3-.6-.6-.6h-3.1c-.6,0-1.1-.5-1.1-1.1v-3.7c0-.6.5-1.1,1.1-1.1h3.1c.3,0,.6-.3.6-.6v-6.9c0-.3.3-.6.6-.6h5.7c.4,0,.7.3.7.7h0v6.2c0,.6.5,1.1,1.1,1.1h5.2c.4,0,.7.3.7.7v4.8c0,.3-.2.6-.5.6h-5.7c-.4,0-.7.3-.7.7,0,4.4,0,9.1,0,14,0,2.2.7,4,3.1,4.2,1.4.1,2.5,0,3.3-.6Z"/>
          <path class="cls-1" d="M138.7,429.1c2.3-2.2,5.3-2.9,9.1-2.1.3,0,.5.3.5.6v6.3c0,.2-.2.4-.4.4,0,0,0,0-.1,0-4.8-1.6-8-.5-9.7,3.5,0,0,0,.2,0,.3v19.2c0,.4-.3.7-.8.7h-5.6c-.4,0-.6-.3-.6-.6h0v-29.4c0-.4.3-.7.7-.7h5.5c.4,0,.7.3.7.7v.9c0,.2.2.4.4.4.1,0,.2,0,.3-.1Z"/>
          <path class="cls-1" d="M165.7,458.8c-8.1,0-14.8-7.2-14.8-16.1h0c0-9,6.5-16.2,14.7-16.3,8.1,0,14.8,7.2,14.8,16.1h0c0,9-6.5,16.2-14.7,16.3h0ZM165.7,452.6c4.2,0,7.6-4.5,7.5-10h0c0-5.5-3.4-10-7.6-10-4.2,0-7.6,4.5-7.5,10h0c0,5.5,3.4,10,7.6,10Z"/>
          <path class="cls-1" d="M194,428.8c4.3-2.9,8.6-3,13.1-.3.4.2.7.6,1,1,.2.3.3.4.5.5.4.1.8,0,1.1-.2,3.4-3.1,7.5-3.9,12.1-2.5,4.8,1.5,6.1,6.7,6.1,11.7,0,7.5,0,13.7,0,18.4,0,.3-.3.6-.6.6,0,0,0,0,0,0h-5.7c-.4,0-.7-.3-.7-.7,0-9.8,0-16.3-.1-19.5-.3-6-8.4-6.5-10-.8,0,.3-.1.5-.1.8v19.2c0,.4-.4.8-.8.8h-5.4c-.5,0-.8-.4-.8-.8,0,0,0,0,0,0,0-9.1,0-15.4-.1-18.9-.1-2.8-1.5-4.5-4.3-5.2-.3,0-.7,0-1,0-2.7.5-4.3,2-4.9,4.4,0,0,0,0,0,0v19.8c0,.3-.3.6-.6.6h-5.7c-.4,0-.7-.3-.7-.7h0v-29.1c0-.5.4-.9.9-.9h5.5c.4,0,.7.3.7.7,0,0,0,.1,0,.2,0,0,0,.1,0,.4,0,.2.1.4.3.5.1,0,.2,0,.3,0Z"/>
          <path class="cls-1" d="M465.7,444.2c-.4,0-.7.3-.7.7,0,0,0,0,0,0,.5,7.8,9.6,10.9,13.7,3.9.2-.4.6-.6,1.1-.6h4.8c.3,0,.6.3.6.6,0,0,0,0,0,.1-1.4,6.8-7.4,10.3-14.1,9.6-18.1-1.8-17.2-30.4-.4-31.8,7.4-.6,12.1,2.4,14.1,9.1.8,2.7,1.1,5.3.8,7.9,0,.3-.3.5-.6.5h-19.3ZM465.7,439h12.7c0,0,.2-.1.2-.2h0c0-3.4-2.9-6.1-6.4-6.1h-.4c-3.5,0-6.3,2.7-6.3,6h0c0,.2,0,.3.2.3h0Z"/>
          <path class="cls-1" d="M490.5,448.9h5.6c.4,0,.7.2.9.5,2.1,3.5,5.2,4.3,9.4,2.4,1.1-.5,1.6-1.5,1.4-3.1-.1-.9-.8-1.7-1.7-1.9-4-1.2-10.2-1.8-13-4.4-3.7-3.3-3.3-9.2.1-12.6,3.1-3.1,7.6-3.5,11.9-3,4.9.6,8.1,3.6,9.3,8.2,0,.3,0,.5-.4.6,0,0,0,0-.1,0h-5.8c-.4,0-.7-.2-.9-.5-1.7-3.2-9-4.2-9.8.4-.2,1.2.7,2.3,1.9,2.6,3.5.8,6.5,1.6,9.2,2.4,3.9,1.2,6,3.8,6.2,7.8.6,13.2-22.6,13.8-24.9,1.3,0-.4.2-.8.6-.8,0,0,0,0,.1,0Z"/>
          <path class="cls-1" d="M556.2,428.8v-1c0-.3.3-.6.6-.6h5.7c.4,0,.6.3.6.6h0c0,.3,0,7.9,0,22.8,0,5.2,0,8.3-.3,9.1-1.5,6.5-6.1,10.2-12.6,10.5-7.3.4-13.4-2.3-14.9-10,0-.3.2-.7.5-.7,0,0,0,0,.1,0h5.4c.4,0,.7.2.8.5,1.5,3.3,4,4.7,7.4,4.4,4.6-.5,6.8-3.4,6.6-8.6,0-.2-.2-.4-.4-.4,0,0-.1,0-.2,0-2.4,1.5-4.6,2.3-6.6,2.3-20.4,0-19.3-33.9,2.2-30.8,1.8.3,3.3,1,4.5,2.1.1.1.3.1.5,0,0,0,0-.1,0-.2ZM541.7,442.1c0,4.4,1.8,7.9,6,9,3.2.8,5.9,0,8-2.6.2-.3.4-.6.4-1,0-.5,0-2.3,0-5.3,0-3,0-4.8,0-5.3,0-.4-.2-.7-.4-1-2.1-2.6-4.7-3.5-8-2.7-4.2,1-6.1,4.6-6.1,8.9Z"/>
          <path class="cls-1" d="M578.6,427.8v.9c0,.3.2.5.5.5,0,0,.2,0,.3,0,5.1-3.8,13.3-3.5,16.7,2.4,1.1,1.9,1.7,4.9,1.6,9.1,0,7.8,0,13.5,0,16.9,0,.3-.2.5-.5.5,0,0,0,0,0,0h-6.4c-.2,0-.4-.2-.4-.4h0c0-11.9,0-18.1,0-18.6,0-4.4-2.3-6.2-6.7-5.7-4.6.6-5.2,3.9-5.1,8.4,0,2.7,0,7.9,0,15.5,0,.4-.3.7-.7.7h-6c-.3,0-.6-.3-.6-.6v-29.2c0-.5.4-.8.8-.8h5.8c.4,0,.7.3.7.6Z"/>
          <path class="cls-1" d="M674.4,458.8c-8.2,0-14.8-7.2-14.9-16.1h0c0-9,6.5-16.2,14.7-16.3h0c8.2,0,14.8,7.2,14.9,16.1h0c0,9-6.5,16.2-14.7,16.3ZM674.2,452.6c4.2,0,7.6-4.5,7.6-10h0c0-5.5-3.4-10-7.6-10s-7.6,4.5-7.6,10,3.4,10,7.6,10h0Z"/>
          <path class="cls-1" d="M731.4,444.2c-.4,0-.7.3-.7.7,0,0,0,0,0,0,.6,7.7,9.6,10.9,13.7,3.8.2-.4.6-.6,1.1-.6h4.8c.3,0,.6.3.6.6,0,0,0,0,0,.1-1.3,6.8-7.4,10.3-14,9.7-18.1-1.7-17.3-30.3-.6-31.8,7.4-.7,12.1,2.4,14.2,9,.8,2.7,1.1,5.3.8,7.9,0,.3-.3.5-.6.5h-19.2ZM731.3,438.9h12.8c0,0,.2-.1.2-.2h0c0-3.4-2.9-6-6.5-6,0,0,0,0,0,0h-.2c-3.6,0-6.4,2.7-6.4,6h0c0,.2,0,.3.2.3h0Z"/>
          <path class="cls-1" d="M762.5,442.7c0,3,1.1,6.6,3.7,8.6.3.2.6.4.9.5,3.8,1.4,6.6.4,8.5-3.1.2-.4.6-.6,1-.6h5.5c.3,0,.6.2.6.5,0,0,0,0,0,.1-1.2,5.4-4.3,8.5-9.7,9.5-10.3,1.9-17.4-5.4-17.4-15.6,0-10.2,6.8-17.5,17.2-15.9,5.5.9,8.6,3.9,9.9,9.3,0,.3-.1.6-.4.7,0,0,0,0-.1,0h-5.5c-.4.1-.8-.1-1-.5-1.9-3.4-4.7-4.4-8.5-2.9-.3.1-.6.3-.9.5-2.6,2.1-3.6,5.7-3.5,8.7Z"/>
          <path class="cls-1" d="M864,444.9c.6,7.8,9.6,10.9,13.7,3.9.2-.4.6-.6,1.1-.6h4.8c.3,0,.6.3.6.6,0,0,0,0,0,.1-1.3,6.8-7.4,10.3-14,9.7-18.1-1.7-17.3-30.3-.6-31.8,7.4-.7,12.1,2.4,14.2,9,.8,2.7,1.1,5.3.8,7.9,0,.3-.3.5-.6.5h-19.3c-.4,0-.7.3-.7.7,0,0,0,0,0,0ZM864.7,438.9h12.8c0,0,.2,0,.2-.2h0s0-.1,0-.1c0-3.3-2.9-6-6.5-6h-.2c-3.6,0-6.4,2.7-6.4,6h0c0,.2,0,.3.2.3h0Z"/>
          <rect class="cls-1" x="509.3" y="439" width="30.8" height="7" rx=".4" ry=".4" transform="translate(81.2 966.5) rotate(-89.9)"/>
          <rect class="cls-1" x="811.6" y="427.2" width="7.3" height="30.7" rx=".7" ry=".7"/>
          <path class="cls-1" d="M839.3,448.5c.2,0,.3,0,.3-.2,2.4-6.9,4.9-13.9,7.4-20.9,0-.1.2-.2.3-.2h7.2c0,0,.1,0,.1.1,0,0,0,0,0,0l-11.4,30c0,.2-.3.4-.5.5,0,0-1.2,0-3.3,0-2.1,0-3.2,0-3.3,0-.2,0-.4-.2-.5-.5l-11.3-30c0,0,0-.1,0-.1,0,0,0,0,0,0h7.2c.1,0,.2,0,.3.2,2.5,7,4.9,14,7.3,20.9,0,.1.2.2.3.2Z"/>
        </g>
      </g>
    </g>
  </g>
</svg>