<?xml version="1.0" encoding="UTF-8"?>
<svg xmlns="http://www.w3.org/2000/svg" version="1.1" viewBox="0 0 556.7 566.9">
  <!-- Generator: Adobe Illustrator 28.7.6, SVG Export Plug-In . SVG Version: 1.2.0 Build 188)  -->
  <g>
    <g id="Layer_1">
      <path d="M278.3,123c14.7,0,24.5,0,29.5-.1.5,0,1-.2,1.5-.5l127.7-88c.3-.2.8-.1,1,.2,0,0,.1.2.1.3,10.9,103.8,16.7,158.3,17.2,163.5,1.8,18.7,4.3,37.9,7.5,57.6,4.8,29.4,13,82.4,24.5,159,.1.8-.3,1.6-1,2-70.8,39-139.2,77.1-205.3,114.4-1.3.7-2.2,1.1-2.7,1.1s-1.4-.4-2.7-1.1c-66.1-37.3-134.5-75.5-205.3-114.4-.7-.4-1.1-1.2-1-2,11.5-76.6,19.7-129.6,24.5-159,3.2-19.7,5.7-38.9,7.5-57.6.5-5.3,6.2-59.8,17.2-163.5,0-.4.4-.7.8-.6.1,0,.2,0,.3.1l127.7,87.9c.4.3.9.5,1.5.5,4.9,0,14.8.1,29.4.1ZM444.1,225.2c.2.2.5.1.7-.1,0,0,0-.2,0-.3l-17.6-167c0-.3-.3-.4-.5-.4,0,0-.1,0-.2,0l-110.3,75.9c-.2.1-.3.4-.1.7,0,0,0,0,.1.1l127.9,91.1ZM111.8,224.7c0,.3.2.5.5.6.1,0,.2,0,.3,0l127.7-91c.2-.2.3-.5.1-.7,0,0,0,0-.1-.1l-110.1-75.9c-.2-.2-.6-.1-.7.1,0,0,0,.2,0,.2l-17.6,166.9ZM278.4,343.4h.1c.1,0,.2,0,.2,0l118.4-145.7c.3-.3.2-.8-.1-1.1,0,0,0,0,0,0l-84.7-60.4c-.6-.4-1.4-.7-2.1-.7-4.8,0-15.3.1-31.7.1-16.3,0-26.9,0-31.7-.1-.8,0-1.5.2-2.1.7l-84.7,60.4c-.3.2-.4.7-.2,1.1,0,0,0,0,0,0l118.4,145.7s0,0,.2,0h.1ZM273,514.3l-44-92.6c-.2-.5-.2-1.1.1-1.6l46.2-72.3c.3-.4.2-.9,0-1.2l-119-146.4c-.3-.4-.9-.5-1.3-.2l-43,30.6c-.6.4-.9,1-1,1.7l-9.9,62.4c-.1.9,0,1.8.5,2.6l105.4,180.1c.3.6.8,1.1,1.4,1.4l64.1,36.1c.2.1.5,0,.6-.2,0-.1,0-.3,0-.4ZM281.1,346.9c-.1.2-.2.4,0,.6l46.8,73.2c0,.1.1.3,0,.5l-44,92.6c-.1.3,0,.6.2.7.1,0,.3,0,.5,0l64.2-35.6c0,0,.1-.1.2-.2l106.6-182.1c0-.1,0-.2,0-.3l-9.8-64.5c0-.1,0-.3-.2-.3l-44.3-31.6c-.2-.2-.5-.1-.7,0l-119.5,147ZM83.6,409.2c0,.2,0,.4.2.5l114.9,63.7c.2.1.5,0,.6-.2,0-.2,0-.3,0-.5l-98.8-168.8c-.1-.2-.4-.3-.6-.2-.1,0-.2.2-.2.3l-16.1,105.1ZM472.9,409.7c.2,0,.3-.3.2-.5l-16-105.2c0-.3-.3-.4-.5-.4-.1,0-.3.1-.3.2l-98.9,168.9c-.1.2,0,.5.2.6.1,0,.3,0,.5,0l114.9-63.8ZM233.7,420.8c-.1.2-.2.5,0,.7l44.1,92.7c.2.4.6.5,1,.3.1,0,.2-.2.3-.3l44.1-92.8c.1-.2,0-.5,0-.7l-44-68.9c-.2-.3-.6-.4-1-.2,0,0-.2.1-.2.2l-44.1,68.9Z"/>
    </g>
  </g>
</svg>